<svg xmlns="http://www.w3.org/2000/svg" viewBox="90 -50 540 860" fill="none" stroke="currentColor" stroke-width="5" stroke-linejoin="round" stroke-linecap="round">
  <path d="M 130,70 L 500,70 L 500,210 L 280,210 L 280,360 L 450,360 L 450,500 L 280,500 L 280,770 L 130,770 Z"/>
  <path d="M 216,-4 L 586,-4 L 586,136 L 366,136 L 366,286 L 536,286 L 536,426 L 366,426 L 366,696 L 216,696 Z"/>
  <line x1="130" y1="70" x2="216" y2="-4"/>
  <line x1="500" y1="70" x2="586" y2="-4"/>
  <line x1="500" y1="210" x2="586" y2="136"/>
  <line x1="280" y1="210" x2="366" y2="136"/>
  <line x1="450" y1="360" x2="536" y2="286"/>
  <line x1="450" y1="500" x2="536" y2="426"/>
  <line x1="280" y1="770" x2="366" y2="696"/>
  <line x1="130" y1="770" x2="216" y2="696"/>
</svg>
