<svg xmlns="http://www.w3.org/2000/svg" viewBox="90 40 540 1130">
<path d="M 130,70 L 500,70 L 500,210 L 280,210 L 280,360 L 450,360 L 450,500 L 280,500 L 280,770 L 130,770 Z" transform="translate(78.00,88.00)" fill="#00f2ff"/>
<path d="M 130,70 L 500,70 L 500,210 L 280,210 L 280,360 L 450,360 L 450,500 L 280,500 L 280,770 L 130,770 Z" transform="translate(76.34,86.13)" fill="#00f2ff"/>
<path d="M 130,70 L 500,70 L 500,210 L 280,210 L 280,360 L 450,360 L 450,500 L 280,500 L 280,770 L 130,770 Z" transform="translate(74.68,84.26)" fill="#00f2ff"/>
<path d="M 130,70 L 500,70 L 500,210 L 280,210 L 280,360 L 450,360 L 450,500 L 280,500 L 280,770 L 130,770 Z" transform="translate(73.02,82.38)" fill="#00f2ff"/>
<path d="M 130,70 L 500,70 L 500,210 L 280,210 L 280,360 L 450,360 L 450,500 L 280,500 L 280,770 L 130,770 Z" transform="translate(71.36,80.51)" fill="#00f2ff"/>
<path d="M 130,70 L 500,70 L 500,210 L 280,210 L 280,360 L 450,360 L 450,500 L 280,500 L 280,770 L 130,770 Z" transform="translate(69.70,78.64)" fill="#00f2ff"/>
<path d="M 130,70 L 500,70 L 500,210 L 280,210 L 280,360 L 450,360 L 450,500 L 280,500 L 280,770 L 130,770 Z" transform="translate(68.04,76.77)" fill="#00f2ff"/>
<path d="M 130,70 L 500,70 L 500,210 L 280,210 L 280,360 L 450,360 L 450,500 L 280,500 L 280,770 L 130,770 Z" transform="translate(66.38,74.89)" fill="#00f2ff"/>
<path d="M 130,70 L 500,70 L 500,210 L 280,210 L 280,360 L 450,360 L 450,500 L 280,500 L 280,770 L 130,770 Z" transform="translate(64.72,73.02)" fill="#00f2ff"/>
<path d="M 130,70 L 500,70 L 500,210 L 280,210 L 280,360 L 450,360 L 450,500 L 280,500 L 280,770 L 130,770 Z" transform="translate(63.06,71.15)" fill="#00f2ff"/>
<path d="M 130,70 L 500,70 L 500,210 L 280,210 L 280,360 L 450,360 L 450,500 L 280,500 L 280,770 L 130,770 Z" transform="translate(61.40,69.28)" fill="#00f2ff"/>
<path d="M 130,70 L 500,70 L 500,210 L 280,210 L 280,360 L 450,360 L 450,500 L 280,500 L 280,770 L 130,770 Z" transform="translate(59.74,67.40)" fill="#00f2ff"/>
<path d="M 130,70 L 500,70 L 500,210 L 280,210 L 280,360 L 450,360 L 450,500 L 280,500 L 280,770 L 130,770 Z" transform="translate(58.09,65.53)" fill="#00f2ff"/>
<path d="M 130,70 L 500,70 L 500,210 L 280,210 L 280,360 L 450,360 L 450,500 L 280,500 L 280,770 L 130,770 Z" transform="translate(56.43,63.66)" fill="#00f2ff"/>
<path d="M 130,70 L 500,70 L 500,210 L 280,210 L 280,360 L 450,360 L 450,500 L 280,500 L 280,770 L 130,770 Z" transform="translate(54.77,61.79)" fill="#00f2ff"/>
<path d="M 130,70 L 500,70 L 500,210 L 280,210 L 280,360 L 450,360 L 450,500 L 280,500 L 280,770 L 130,770 Z" transform="translate(53.11,59.91)" fill="#00f2ff"/>
<path d="M 130,70 L 500,70 L 500,210 L 280,210 L 280,360 L 450,360 L 450,500 L 280,500 L 280,770 L 130,770 Z" transform="translate(51.45,58.04)" fill="#00f2ff"/>
<path d="M 130,70 L 500,70 L 500,210 L 280,210 L 280,360 L 450,360 L 450,500 L 280,500 L 280,770 L 130,770 Z" transform="translate(49.79,56.17)" fill="#00f2ff"/>
<path d="M 130,70 L 500,70 L 500,210 L 280,210 L 280,360 L 450,360 L 450,500 L 280,500 L 280,770 L 130,770 Z" transform="translate(48.13,54.30)" fill="#00f2ff"/>
<path d="M 130,70 L 500,70 L 500,210 L 280,210 L 280,360 L 450,360 L 450,500 L 280,500 L 280,770 L 130,770 Z" transform="translate(46.47,52.43)" fill="#00f2ff"/>
<path d="M 130,70 L 500,70 L 500,210 L 280,210 L 280,360 L 450,360 L 450,500 L 280,500 L 280,770 L 130,770 Z" transform="translate(44.81,50.55)" fill="#00f2ff"/>
<path d="M 130,70 L 500,70 L 500,210 L 280,210 L 280,360 L 450,360 L 450,500 L 280,500 L 280,770 L 130,770 Z" transform="translate(43.15,48.68)" fill="#00f2ff"/>
<path d="M 130,70 L 500,70 L 500,210 L 280,210 L 280,360 L 450,360 L 450,500 L 280,500 L 280,770 L 130,770 Z" transform="translate(41.49,46.81)" fill="#00f2ff"/>
<path d="M 130,70 L 500,70 L 500,210 L 280,210 L 280,360 L 450,360 L 450,500 L 280,500 L 280,770 L 130,770 Z" transform="translate(39.83,44.94)" fill="#00f2ff"/>
<path d="M 130,70 L 500,70 L 500,210 L 280,210 L 280,360 L 450,360 L 450,500 L 280,500 L 280,770 L 130,770 Z" transform="translate(38.17,43.06)" fill="#00f2ff"/>
<path d="M 130,70 L 500,70 L 500,210 L 280,210 L 280,360 L 450,360 L 450,500 L 280,500 L 280,770 L 130,770 Z" transform="translate(36.51,41.19)" fill="#00f2ff"/>
<path d="M 130,70 L 500,70 L 500,210 L 280,210 L 280,360 L 450,360 L 450,500 L 280,500 L 280,770 L 130,770 Z" transform="translate(34.85,39.32)" fill="#00f2ff"/>
<path d="M 130,70 L 500,70 L 500,210 L 280,210 L 280,360 L 450,360 L 450,500 L 280,500 L 280,770 L 130,770 Z" transform="translate(33.19,37.45)" fill="#00f2ff"/>
<path d="M 130,70 L 500,70 L 500,210 L 280,210 L 280,360 L 450,360 L 450,500 L 280,500 L 280,770 L 130,770 Z" transform="translate(31.53,35.57)" fill="#00f2ff"/>
<path d="M 130,70 L 500,70 L 500,210 L 280,210 L 280,360 L 450,360 L 450,500 L 280,500 L 280,770 L 130,770 Z" transform="translate(29.87,33.70)" fill="#00f2ff"/>
<path d="M 130,70 L 500,70 L 500,210 L 280,210 L 280,360 L 450,360 L 450,500 L 280,500 L 280,770 L 130,770 Z" transform="translate(28.21,31.83)" fill="#00f2ff"/>
<path d="M 130,70 L 500,70 L 500,210 L 280,210 L 280,360 L 450,360 L 450,500 L 280,500 L 280,770 L 130,770 Z" transform="translate(26.55,29.96)" fill="#00f2ff"/>
<path d="M 130,70 L 500,70 L 500,210 L 280,210 L 280,360 L 450,360 L 450,500 L 280,500 L 280,770 L 130,770 Z" transform="translate(24.89,28.09)" fill="#00f2ff"/>
<path d="M 130,70 L 500,70 L 500,210 L 280,210 L 280,360 L 450,360 L 450,500 L 280,500 L 280,770 L 130,770 Z" transform="translate(23.23,26.21)" fill="#00f2ff"/>
<path d="M 130,70 L 500,70 L 500,210 L 280,210 L 280,360 L 450,360 L 450,500 L 280,500 L 280,770 L 130,770 Z" transform="translate(21.57,24.34)" fill="#00f2ff"/>
<path d="M 130,70 L 500,70 L 500,210 L 280,210 L 280,360 L 450,360 L 450,500 L 280,500 L 280,770 L 130,770 Z" transform="translate(19.91,22.47)" fill="#00f2ff"/>
<path d="M 130,70 L 500,70 L 500,210 L 280,210 L 280,360 L 450,360 L 450,500 L 280,500 L 280,770 L 130,770 Z" transform="translate(18.26,20.60)" fill="#00f2ff"/>
<path d="M 130,70 L 500,70 L 500,210 L 280,210 L 280,360 L 450,360 L 450,500 L 280,500 L 280,770 L 130,770 Z" transform="translate(16.60,18.72)" fill="#00f2ff"/>
<path d="M 130,70 L 500,70 L 500,210 L 280,210 L 280,360 L 450,360 L 450,500 L 280,500 L 280,770 L 130,770 Z" transform="translate(14.94,16.85)" fill="#00f2ff"/>
<path d="M 130,70 L 500,70 L 500,210 L 280,210 L 280,360 L 450,360 L 450,500 L 280,500 L 280,770 L 130,770 Z" transform="translate(13.28,14.98)" fill="#00f2ff"/>
<path d="M 130,70 L 500,70 L 500,210 L 280,210 L 280,360 L 450,360 L 450,500 L 280,500 L 280,770 L 130,770 Z" transform="translate(11.62,13.11)" fill="#00f2ff"/>
<path d="M 130,70 L 500,70 L 500,210 L 280,210 L 280,360 L 450,360 L 450,500 L 280,500 L 280,770 L 130,770 Z" transform="translate(9.96,11.23)" fill="#00f2ff"/>
<path d="M 130,70 L 500,70 L 500,210 L 280,210 L 280,360 L 450,360 L 450,500 L 280,500 L 280,770 L 130,770 Z" transform="translate(8.30,9.36)" fill="#00f2ff"/>
<path d="M 130,70 L 500,70 L 500,210 L 280,210 L 280,360 L 450,360 L 450,500 L 280,500 L 280,770 L 130,770 Z" transform="translate(6.64,7.49)" fill="#00f2ff"/>
<path d="M 130,70 L 500,70 L 500,210 L 280,210 L 280,360 L 450,360 L 450,500 L 280,500 L 280,770 L 130,770 Z" transform="translate(4.98,5.62)" fill="#00f2ff"/>
<path d="M 130,70 L 500,70 L 500,210 L 280,210 L 280,360 L 450,360 L 450,500 L 280,500 L 280,770 L 130,770 Z" transform="translate(3.32,3.74)" fill="#00f2ff"/>
<path d="M 130,70 L 500,70 L 500,210 L 280,210 L 280,360 L 450,360 L 450,500 L 280,500 L 280,770 L 130,770 Z" transform="translate(1.66,1.87)" fill="#00f2ff"/>
<line x1="130" y1="70" x2="208" y2="158" stroke="#0a1221" stroke-width="1.5"/>
<line x1="500" y1="70" x2="578" y2="158" stroke="#0a1221" stroke-width="1.5"/>
<line x1="500" y1="210" x2="578" y2="298" stroke="#0a1221" stroke-width="1.5"/>
<line x1="280" y1="210" x2="358" y2="298" stroke="#0a1221" stroke-width="1.5"/>
<line x1="280" y1="360" x2="358" y2="448" stroke="#0a1221" stroke-width="1.5"/>
<line x1="450" y1="360" x2="528" y2="448" stroke="#0a1221" stroke-width="1.5"/>
<line x1="450" y1="500" x2="528" y2="588" stroke="#0a1221" stroke-width="1.5"/>
<line x1="280" y1="500" x2="358" y2="588" stroke="#0a1221" stroke-width="1.5"/>
<line x1="280" y1="770" x2="358" y2="858" stroke="#0a1221" stroke-width="1.5"/>
<line x1="130" y1="770" x2="208" y2="858" stroke="#0a1221" stroke-width="1.5"/>
<path d="M 130,70 L 500,70 L 500,210 L 280,210 L 280,360 L 450,360 L 450,500 L 280,500 L 280,770 L 130,770 Z" fill="#0f1b30"/>
<text x="354" y="1095" text-anchor="middle" font-family="'Geist',sans-serif" font-weight="700" font-size="150" fill="#849495" letter-spacing="-3">Fabian</text>
</svg>
